<mxfile host="65bd71144e">
    <diagram id="wZZcUF0_zbzzVM9tNgCg" name="Page-1">
        <mxGraphModel dx="750" dy="617" grid="1" gridSize="10" guides="1" tooltips="1" connect="1" arrows="1" fold="1" page="1" pageScale="1" pageWidth="827" pageHeight="1169" math="0" shadow="0">
            <root>
                <mxCell id="0"/>
                <mxCell id="1" parent="0"/>
                <mxCell id="40" value="" style="rounded=1;whiteSpace=wrap;html=1;fontFamily=Courier New;fontSize=18;dashed=1;strokeColor=#FF3333;strokeWidth=3;" vertex="1" parent="1">
                    <mxGeometry x="263" y="93" width="350" height="310" as="geometry"/>
                </mxCell>
                <mxCell id="21" value="&lt;span&gt;Table de hash&lt;/span&gt;" style="rounded=0;whiteSpace=wrap;html=1;fontSize=20;fillColor=#E6E6E6;" parent="1" vertex="1">
                    <mxGeometry x="413" width="200" height="60" as="geometry"/>
                </mxCell>
                <mxCell id="22" value="" style="group" parent="1" vertex="1" connectable="0">
                    <mxGeometry x="400" y="160" width="200" height="210" as="geometry"/>
                </mxCell>
                <mxCell id="7" value="&lt;span style=&quot;font-size: 17px&quot;&gt;alice, 123221C&lt;/span&gt;" style="rounded=0;whiteSpace=wrap;html=1;fillColor=#99FFCC;" parent="22" vertex="1">
                    <mxGeometry x="40" width="160" height="30" as="geometry"/>
                </mxCell>
                <mxCell id="8" value="" style="rounded=0;whiteSpace=wrap;html=1;" parent="22" vertex="1">
                    <mxGeometry x="40" y="120" width="160" height="30" as="geometry"/>
                </mxCell>
                <mxCell id="9" value="&lt;span style=&quot;font-size: 17px&quot;&gt;bob, 124098Z&lt;/span&gt;" style="rounded=0;whiteSpace=wrap;html=1;fillColor=#99FFCC;" parent="22" vertex="1">
                    <mxGeometry x="40" y="180" width="160" height="30" as="geometry"/>
                </mxCell>
                <mxCell id="10" value="" style="rounded=0;whiteSpace=wrap;html=1;" parent="22" vertex="1">
                    <mxGeometry x="40" y="30" width="160" height="30" as="geometry"/>
                </mxCell>
                <mxCell id="11" value="" style="rounded=0;whiteSpace=wrap;html=1;" parent="22" vertex="1">
                    <mxGeometry x="40" y="60" width="160" height="30" as="geometry"/>
                </mxCell>
                <mxCell id="12" value="&lt;span style=&quot;font-size: 17px&quot;&gt;bill, 243789X&lt;/span&gt;" style="rounded=0;whiteSpace=wrap;html=1;fillColor=#99FFCC;" parent="22" vertex="1">
                    <mxGeometry x="40" y="90" width="160" height="30" as="geometry"/>
                </mxCell>
                <mxCell id="13" value="" style="rounded=0;whiteSpace=wrap;html=1;" parent="22" vertex="1">
                    <mxGeometry x="40" y="150" width="160" height="30" as="geometry"/>
                </mxCell>
                <mxCell id="14" value="1" style="rounded=0;whiteSpace=wrap;html=1;fontSize=17;" parent="22" vertex="1">
                    <mxGeometry width="40" height="30" as="geometry"/>
                </mxCell>
                <mxCell id="15" value="2" style="rounded=0;whiteSpace=wrap;html=1;fontSize=17;" parent="22" vertex="1">
                    <mxGeometry y="30" width="40" height="30" as="geometry"/>
                </mxCell>
                <mxCell id="16" value="3" style="rounded=0;whiteSpace=wrap;html=1;fontSize=17;" parent="22" vertex="1">
                    <mxGeometry y="60" width="40" height="30" as="geometry"/>
                </mxCell>
                <mxCell id="17" value="4" style="rounded=0;whiteSpace=wrap;html=1;fontSize=17;" parent="22" vertex="1">
                    <mxGeometry y="90" width="40" height="30" as="geometry"/>
                </mxCell>
                <mxCell id="18" value="5" style="rounded=0;whiteSpace=wrap;html=1;fontSize=17;" parent="22" vertex="1">
                    <mxGeometry y="120" width="40" height="30" as="geometry"/>
                </mxCell>
                <mxCell id="19" value="6" style="rounded=0;whiteSpace=wrap;html=1;fontSize=17;" parent="22" vertex="1">
                    <mxGeometry y="150" width="40" height="30" as="geometry"/>
                </mxCell>
                <mxCell id="20" value="7" style="rounded=0;whiteSpace=wrap;html=1;fontSize=17;" parent="22" vertex="1">
                    <mxGeometry y="180" width="40" height="30" as="geometry"/>
                </mxCell>
                <mxCell id="23" value="tableau contenant&lt;br style=&quot;font-size: 14px&quot;&gt;les couples (clé, valeur)" style="text;html=1;strokeColor=none;fillColor=none;align=center;verticalAlign=middle;whiteSpace=wrap;rounded=0;fontSize=14;" vertex="1" parent="1">
                    <mxGeometry x="415" y="120" width="170" height="30" as="geometry"/>
                </mxCell>
                <mxCell id="24" value="&lt;div style=&quot;font-size: 18px&quot;&gt;&lt;span style=&quot;font-family: &amp;#34;courier new&amp;#34;&quot;&gt;&lt;font style=&quot;font-size: 18px&quot;&gt;&amp;nbsp;T['alice'] = '123221C'&lt;/font&gt;&lt;/span&gt;&lt;/div&gt;&lt;font face=&quot;Courier New&quot; style=&quot;font-size: 18px&quot;&gt;&lt;div&gt;&lt;span&gt;&amp;nbsp;T['bob'] = '124098Z'&lt;/span&gt;&lt;/div&gt;&lt;div&gt;&lt;span&gt;&amp;nbsp;T['bill'] = '243789X'&lt;/span&gt;&lt;/div&gt;&lt;/font&gt;" style="text;html=1;strokeColor=none;fillColor=#FFCC99;align=left;verticalAlign=middle;whiteSpace=wrap;rounded=0;fontSize=14;" vertex="1" parent="1">
                    <mxGeometry x="20" width="260" height="100" as="geometry"/>
                </mxCell>
                <mxCell id="35" style="edgeStyle=none;html=1;fontFamily=Courier New;fontSize=18;" edge="1" parent="1" source="25">
                    <mxGeometry relative="1" as="geometry">
                        <mxPoint x="280" y="210" as="targetPoint"/>
                    </mxGeometry>
                </mxCell>
                <mxCell id="25" value="alice" style="rounded=1;whiteSpace=wrap;html=1;fontFamily=Courier New;fontSize=18;fillColor=#FAAAAA;" vertex="1" parent="1">
                    <mxGeometry x="120" y="200" width="80" height="20" as="geometry"/>
                </mxCell>
                <mxCell id="26" value="clés" style="text;html=1;strokeColor=none;fillColor=none;align=center;verticalAlign=middle;whiteSpace=wrap;rounded=0;fontSize=14;" vertex="1" parent="1">
                    <mxGeometry x="75" y="120" width="170" height="30" as="geometry"/>
                </mxCell>
                <mxCell id="36" style="edgeStyle=none;html=1;fontFamily=Courier New;fontSize=18;" edge="1" parent="1" source="27">
                    <mxGeometry relative="1" as="geometry">
                        <mxPoint x="280" y="250" as="targetPoint"/>
                    </mxGeometry>
                </mxCell>
                <mxCell id="27" value="bob" style="rounded=1;whiteSpace=wrap;html=1;fontFamily=Courier New;fontSize=18;fillColor=#FAAAAA;" vertex="1" parent="1">
                    <mxGeometry x="120" y="240" width="80" height="20" as="geometry"/>
                </mxCell>
                <mxCell id="31" style="edgeStyle=none;html=1;fontFamily=Courier New;fontSize=18;" edge="1" parent="1" source="28">
                    <mxGeometry relative="1" as="geometry">
                        <mxPoint x="280" y="290" as="targetPoint"/>
                    </mxGeometry>
                </mxCell>
                <mxCell id="28" value="bill" style="rounded=1;whiteSpace=wrap;html=1;fontFamily=Courier New;fontSize=18;fillColor=#FAAAAA;" vertex="1" parent="1">
                    <mxGeometry x="120" y="280" width="80" height="20" as="geometry"/>
                </mxCell>
                <mxCell id="33" value="" style="rounded=0;whiteSpace=wrap;html=1;fontFamily=Courier New;fontSize=18;fillColor=#9298FF;" vertex="1" parent="1">
                    <mxGeometry x="280" y="160" width="60" height="210" as="geometry"/>
                </mxCell>
                <mxCell id="34" value="fonction&lt;br&gt;de hash" style="text;html=1;strokeColor=none;fillColor=none;align=center;verticalAlign=middle;whiteSpace=wrap;rounded=0;fontSize=14;" vertex="1" parent="1">
                    <mxGeometry x="260" y="110" width="105" height="50" as="geometry"/>
                </mxCell>
                <mxCell id="37" value="" style="endArrow=classic;html=1;fontFamily=Courier New;fontSize=18;entryX=0;entryY=0.5;entryDx=0;entryDy=0;" edge="1" parent="1" target="14">
                    <mxGeometry width="50" height="50" relative="1" as="geometry">
                        <mxPoint x="280" y="210" as="sourcePoint"/>
                        <mxPoint x="330" y="160" as="targetPoint"/>
                    </mxGeometry>
                </mxCell>
                <mxCell id="38" value="" style="endArrow=classic;html=1;fontFamily=Courier New;fontSize=18;entryX=0;entryY=0.5;entryDx=0;entryDy=0;" edge="1" parent="1" target="20">
                    <mxGeometry width="50" height="50" relative="1" as="geometry">
                        <mxPoint x="280" y="250" as="sourcePoint"/>
                        <mxPoint x="330" y="200" as="targetPoint"/>
                    </mxGeometry>
                </mxCell>
                <mxCell id="39" value="" style="endArrow=classic;html=1;fontFamily=Courier New;fontSize=18;entryX=0;entryY=0.5;entryDx=0;entryDy=0;" edge="1" parent="1" target="17">
                    <mxGeometry width="50" height="50" relative="1" as="geometry">
                        <mxPoint x="280" y="290" as="sourcePoint"/>
                        <mxPoint x="330" y="240" as="targetPoint"/>
                    </mxGeometry>
                </mxCell>
            </root>
        </mxGraphModel>
    </diagram>
</mxfile>